# xmcd
#
# Track frame offsets: 
#        150
#        24718
#        54430
#        75992
#        111628
#        132135
#        156407
#        179027
#        201111
#        226489
#        253187
#        271722
#        312257
#        328711
#
# Disc length: 4613 seconds
#
# Revision: 3
# Processed by: cddbd v1.5.2PL0 Copyright (c) Steve Scherf et al.
# Submitted via: ExactAudioCopy v0.95a5
#
DISCID=c612030e
DTITLE=Various Artist - Blues Paradise vol13
DYEAR=2000
DGENRE=Blues
TTITLE0=Eric Culberson - Why did you life?
TTITLE1=Joe Bread feat. Ronnie Earl and The Broad Casters - Feets out in
TTITLE1=the Hallway
TTITLE2=Mighty Sam McClain - I'm so lonely
TTITLE3=Lucky Peterson - Tribute to the King
TTITLE4=Bill Perry - In my lonely room
TTITLE5=Glenn Hughes - So much love to give
TTITLE6=Sherman Robertson - In the here and now
TTITLE7=Jeff Pilson - You shook me
TTITLE8=Preston Shannon - Purple rain
TTITLE9=Guitar Pete - Gasoline
TTITLE10=Gov' Mule - Rosking horse
TTITLE11=Snowy White - Keep on working
TTITLE12=The Holmes Brothers - Thank God for you
TTITLE13=Oscar Benton - Bensonhurst blues
EXTD=
EXTT0=
EXTT1=
EXTT2=
EXTT3=
EXTT4=
EXTT5=
EXTT6=
EXTT7=
EXTT8=
EXTT9=
EXTT10=
EXTT11=
EXTT12=
EXTT13=
PLAYORDER=
